<svg width="1020" height="53" viewBox="0 0 1020 53" fill="none" xmlns="http://www.w3.org/2000/svg">
<path d="M888.379 0H494V26.5V53H888.379L922.285 26.5L888.379 0Z" fill="#C41230"/>
<path d="M985.181 0H954.666L988.571 26.5L954.666 53H985.181L1019.09 26.5L985.181 0Z" fill="#C41230"/>
<path d="M937.713 0H907.198L941.104 26.5L907.198 53H937.713L971.619 26.5L937.713 0Z" fill="#C41230"/>
<path d="M130.707 53L525.086 53V26.5V-1.99221e-06L130.707 -1.99221e-06L96.8017 26.5L130.707 53Z" fill="#C41230"/>
<path d="M33.9055 53L64.4205 53L30.515 26.5L64.4205 -1.43051e-06L33.9055 -1.43051e-06L8.34465e-06 26.5L33.9055 53Z" fill="#C41230"/>
<path d="M81.3733 53L111.888 53L77.9827 26.5L111.888 -1.43051e-06L81.3733 -1.43051e-06L47.4678 26.5L81.3733 53Z" fill="#C41230"/>
</svg>
